<svg width="60" height="60" viewBox="0 0 60 60" fill="none" xmlns="http://www.w3.org/2000/svg">
<circle cx="30" cy="30" r="30" fill="url(#paint0_linear_177_331)"/>
<rect width="40" height="40" transform="translate(10 8.33337)" fill="#0E0A0A" style="mix-blend-mode:hue"/>
<path d="M43.3327 43.3334V40C43.3327 38.2319 42.6303 36.5362 41.3801 35.286C40.1298 34.0358 38.4341 33.3334 36.666 33.3334H23.3327C21.5646 33.3334 19.8689 34.0358 18.6186 35.286C17.3684 36.5362 16.666 38.2319 16.666 40V43.3334" fill="#F2F2F2"/>
<path d="M29.9993 26.6667C33.6812 26.6667 36.666 23.6819 36.666 20C36.666 16.3181 33.6812 13.3334 29.9993 13.3334C26.3175 13.3334 23.3327 16.3181 23.3327 20C23.3327 23.6819 26.3175 26.6667 29.9993 26.6667Z" fill="#F2F2F2"/>
<path d="M43.3327 43.3334V40C43.3327 38.2319 42.6303 36.5362 41.3801 35.286C40.1298 34.0358 38.4341 33.3334 36.666 33.3334H23.3327C21.5646 33.3334 19.8689 34.0358 18.6186 35.286C17.3684 36.5362 16.666 38.2319 16.666 40V43.3334M36.666 20C36.666 23.6819 33.6812 26.6667 29.9993 26.6667C26.3175 26.6667 23.3327 23.6819 23.3327 20C23.3327 16.3181 26.3175 13.3334 29.9993 13.3334C33.6812 13.3334 36.666 16.3181 36.666 20Z" stroke="#F3F3F3" stroke-width="4" stroke-linecap="round" stroke-linejoin="round"/>
<defs>
<linearGradient id="paint0_linear_177_331" x1="30" y1="0" x2="30" y2="60" gradientUnits="userSpaceOnUse">
<stop stop-color="#522424"/>
<stop offset="1"/>
</linearGradient>
</defs>
</svg>
